<?xml version="1.0" encoding="UTF-8"?>
<svg id="Logos" xmlns="http://www.w3.org/2000/svg" viewBox="0 0 1200 1200">
  <defs>
    <style>
      .cls-1 {
        fill: #fff;
      }
    </style>
  </defs>
  <path class="cls-1" d="M208.51,307.76l-.32-150.36c.23-2.16,2.03-4.44,4.38-4.9,1.65-.32,3.68-.11,5.38,1.65l227,227.1,64.66-64.57-.05-.05-138.01-138.02-.05-.06c-6.18-5.65-9.74-13.69-9.74-22.06,0-.29.03-150.95.03-150.95.11-2.12,1.8-4.58,4.33-5.17,1.38-.32,3.5-.41,5.6,1.65l225.9,226.54L823.56,2.1c1.45-1.43,2.99-1.95,4.33-1.95,2.43,0,5.69,1.76,5.69,5.64v152.86c0,8.37-5.38,17.65-12.75,23.93l-.47.46-365.34,365.14c-.49.39-3.96,4.86-10.05,4.86-4.76,0-7.65-2.54-8.72-3.49l-218.45-218.22s-10.51-9.67-9.28-23.56ZM331.17,980.26l218.23-218.45c.94-1.08,3.48-3.97,3.48-8.74,0-6.09-4.46-9.55-4.85-10.04L182.89,377.68l-.46-.46c-6.29-7.39-15.57-12.76-23.94-12.76H5.64c-3.89,0-5.64,3.26-5.64,5.7,0,1.32.53,2.88,1.96,4.32l226.47,225.92L1.89,826.31c-2.07,2.09-1.96,4.23-1.65,5.59.58,2.53,3.03,4.23,5.17,4.33,0,0,150.65.04,150.93.04,8.37,0,16.43-3.55,22.06-9.73l.05-.06,138.02-138.01.04-.03,64.58,64.65-227.09,227.01c-1.77,1.7-1.98,3.73-1.66,5.37.47,2.35,2.75,4.15,4.9,4.38l150.37-.33c13.89,1.24,23.55-9.26,23.55-9.26ZM979.15,1045.84c1.7,1.77,3.73,1.98,5.36,1.66,2.36-.46,4.15-2.73,4.4-4.9l-.33-150.37c1.24-13.9-9.26-23.56-9.26-23.56l-218.45-218.22c-1.08-.94-3.97-3.49-8.74-3.49-6.09,0-9.54,4.48-10.03,4.87l-98.61,98.54-266.75,266.59-.46.46c-7.39,6.28-12.77,15.56-12.77,23.93v152.86c0,3.89,3.27,5.64,5.71,5.64,1.31,0,2.87-.53,4.33-1.95l225.91-226.48,225.91,226.54c2.08,2.07,4.22,1.97,5.59,1.66,2.52-.58,4.22-3.04,4.33-5.17,0,0,.03-150.66.03-150.95,0-8.37-3.54-16.41-9.72-22.07l-.05-.05-138.02-138.02-.02-.06,64.64-64.56,227.02,227.09ZM647.1,446.86c0,6.09,4.48,9.55,4.87,10.03l365.13,365.35.47.46c6.27,7.38,15.57,12.75,23.92,12.75h152.87c3.87,0,5.64-3.26,5.64-5.7,0-1.32-.54-2.87-1.96-4.32l-226.49-225.92,226.54-225.91c2.07-2.09,1.98-4.22,1.66-5.59-.58-2.53-3.05-4.23-5.17-4.33,0,0-150.65-.04-150.95-.04-8.37,0-16.41,3.55-22.06,9.73l-.05.06-138.03,138.02-.04.04-64.58-64.66,227.1-227.01c1.75-1.7,1.98-3.73,1.65-5.37-.47-2.36-2.73-4.15-4.9-4.39l-150.37.33c-13.89-1.24-23.55,9.26-23.55,9.26l-218.23,218.45c-.94,1.08-3.49,3.97-3.49,8.74Z"/>
</svg>