<svg xmlns="http://www.w3.org/2000/svg" xmlns:xlink="http://www.w3.org/1999/xlink" width="65" height="71" viewBox="0 0 65 71">
  <defs>
    <clipPath id="clip-path">
      <rect id="Rectangle_2082" data-name="Rectangle 2082" width="65" height="71" transform="translate(165 11)" fill="#fff" stroke="#707070" stroke-width="1"/>
    </clipPath>
    <clipPath id="clip-path-2">
      <rect id="Rectangle_2067" data-name="Rectangle 2067" width="65" height="65" fill="none" stroke="#707070" stroke-width="1"/>
    </clipPath>
  </defs>
  <g id="Mask_Group_3" data-name="Mask Group 3" transform="translate(-165 -11)" clip-path="url(#clip-path)">
    <g id="Group_135" data-name="Group 135" transform="translate(165 14)">
      <g id="Group_134" data-name="Group 134" clip-path="url(#clip-path-2)">
        <path id="Path_29" data-name="Path 29" d="M11.3,16.666,11.278,8.52a.315.315,0,0,1,.237-.266.305.305,0,0,1,.291.09l12.3,12.3,3.5-3.5-7.478-7.48h0a1.625,1.625,0,0,1-.527-1.2V.286a.314.314,0,0,1,.234-.28.309.309,0,0,1,.3.089L32.372,12.376,44.61.1a.335.335,0,0,1,.235-.1.3.3,0,0,1,.308.3V8.587a1.845,1.845,0,0,1-.691,1.3l-.025.025L24.647,29.691a.754.754,0,0,1-.544.263.694.694,0,0,1-.473-.189L11.8,17.943a1.688,1.688,0,0,1-.5-1.277M29.949,40.793a.751.751,0,0,0-.264-.544L9.907,20.454l-.026-.025a1.841,1.841,0,0,0-1.3-.692H.305A.3.3,0,0,0,0,20.046a.337.337,0,0,0,.106.234L12.374,32.521.1,44.76a.31.31,0,0,0-.09.3.317.317,0,0,0,.28.235H8.466a1.622,1.622,0,0,0,1.194-.528h0l7.477-7.478,3.5,3.5-12.3,12.3a.307.307,0,0,0-.09.29.317.317,0,0,0,.266.238l8.144-.018a1.687,1.687,0,0,0,1.277-.5L29.76,41.266a.7.7,0,0,0,.189-.473m23.1,6.263L41.214,35.233a.7.7,0,0,0-.474-.189.752.752,0,0,0-.543.263L20.407,55.09l-.025.025a1.842,1.842,0,0,0-.69,1.3V64.7A.3.3,0,0,0,20,65a.331.331,0,0,0,.234-.106L32.47,52.622,44.707,64.9a.307.307,0,0,0,.3.09.316.316,0,0,0,.235-.28V56.533a1.625,1.625,0,0,0-.528-1.2h0l-7.475-7.478,3.5-3.5,12.3,12.3a.3.3,0,0,0,.29.09.315.315,0,0,0,.238-.266l-.018-8.146a1.685,1.685,0,0,0-.5-1.276m-.42-14.583L64.9,20.234a.31.31,0,0,0,.09-.3.315.315,0,0,0-.28-.234H56.534a1.62,1.62,0,0,0-1.195.528h0L47.857,27.7l-3.5-3.5,12.3-12.3a.307.307,0,0,0,.09-.291.316.316,0,0,0-.266-.237l-8.144.017a1.689,1.689,0,0,0-1.277.5L35.241,23.728a.7.7,0,0,0-.189.474.75.75,0,0,0,.264.544L55.093,44.54l.026.025a1.842,1.842,0,0,0,1.3.691H64.7a.3.3,0,0,0,.3-.308.333.333,0,0,0-.106-.234Z" fill="#fff" stroke="#707070" stroke-width="1"/>
      </g>
    </g>
  </g>
</svg>
