<svg xmlns="http://www.w3.org/2000/svg" xmlns:xlink="http://www.w3.org/1999/xlink" width="96" height="22" viewBox="0 0 96 22">
  <defs>
    <clipPath id="clip-path">
      <rect id="Rectangle_2071" data-name="Rectangle 2071" width="96" height="22" transform="translate(0 0)" fill="none"/>
    </clipPath>
  </defs>
  <g id="Group_178" data-name="Group 178" clip-path="url(#clip-path)">
    <path id="Path_33" data-name="Path 33" d="M140.417,39.831h4.121v1.73h-4.121V44.91h-1.9V36.261h6.576v1.73h-4.676Zm9.765-3.632,3.7,8.711H151.9l-.79-1.94h-3.652l-.789,1.94h-1.937l3.7-8.711Zm.247,5.09-1.148-2.8-1.147,2.8Zm10.121.3L156.5,36.261h-1.752V44.91h1.875v-5.5l4.183,5.5h1.616V36.261H160.55Zm7.31-1.853C166.367,39.35,166,39.164,166,38.6v-.025c0-.42.383-.754,1.11-.754a4.048,4.048,0,0,1,2.245.853l.987-1.433a5,5,0,0,0-3.208-1.1c-1.764,0-3.023,1.038-3.023,2.607v.025c0,1.718,1.123,2.2,2.863,2.644,1.443.371,1.74.618,1.74,1.1v.025c0,.507-.469.815-1.246.815a3.958,3.958,0,0,1-2.578-1.05l-1.123,1.347a5.49,5.49,0,0,0,3.664,1.384c1.863,0,3.171-.964,3.171-2.681v-.025c0-1.508-.987-2.138-2.739-2.595m9.654-.049h-3.5V36.261h-1.9V44.91h1.9V41.438h3.5V44.91h1.9V36.261h-1.9ZM185.89,36.2l3.7,8.711h-1.987l-.79-1.94h-3.652l-.79,1.94h-1.937l3.7-8.711Zm.247,5.09-1.147-2.8-1.147,2.8Zm11.911.828-1.937-5.881h-1.628l-1.937,5.881-1.789-5.857h-2.035l2.949,8.711h1.653l1.949-5.659,1.949,5.659h1.653l2.949-8.711h-1.986Zm6.76,1.1V41.4h4.072V39.708h-4.072V37.953h4.627V36.261h-6.514V44.91H209.5V43.217Z" transform="translate(-113.497 -29.6)" fill="#fff"/>
    <path id="Path_34" data-name="Path 34" d="M3.818,5.64,3.812,2.883a.107.107,0,0,1,.08-.09.1.1,0,0,1,.1.03L8.147,6.988,9.331,5.8,6.8,3.272h0a.55.55,0,0,1-.178-.4c0-.005,0-2.768,0-2.768A.106.106,0,0,1,6.7,0a.1.1,0,0,1,.1.03l4.136,4.154L15.08.035A.113.113,0,0,1,15.159,0a.1.1,0,0,1,.1.1v2.8a.625.625,0,0,1-.234.439l-.008.009-6.69,6.7a.255.255,0,0,1-.184.089.234.234,0,0,1-.16-.064l-4-4a.572.572,0,0,1-.17-.432m6.306,8.166a.254.254,0,0,0-.089-.184l-6.686-6.7L3.34,6.914A.622.622,0,0,0,2.9,6.68H.1a.1.1,0,0,0-.1.1.114.114,0,0,0,.036.079l4.147,4.143L.035,15.149a.1.1,0,0,0-.03.1.107.107,0,0,0,.095.079H2.863a.548.548,0,0,0,.4-.179h0L5.8,12.621l1.183,1.185L2.82,17.969a.1.1,0,0,0-.03.1.107.107,0,0,0,.09.081l2.753-.006a.57.57,0,0,0,.432-.17l4-4.006a.236.236,0,0,0,.064-.16m7.808,2.12-4-4a.236.236,0,0,0-.16-.064.254.254,0,0,0-.184.089l-6.69,6.7-.008.009a.624.624,0,0,0-.233.439v2.8a.1.1,0,0,0,.1.1.112.112,0,0,0,.079-.036l4.137-4.153,4.137,4.154a.1.1,0,0,0,.1.03.107.107,0,0,0,.079-.095s0-2.763,0-2.768a.55.55,0,0,0-.178-.4h0L12.589,16.2l1.183-1.185,4.157,4.164a.1.1,0,0,0,.1.03.107.107,0,0,0,.08-.09L18.1,16.358a.57.57,0,0,0-.169-.432M17.79,10.99l4.148-4.143a.1.1,0,0,0,.03-.1.106.106,0,0,0-.095-.079H19.109a.547.547,0,0,0-.4.179h0L16.177,9.375,14.994,8.191l4.158-4.163a.1.1,0,0,0,.03-.1.107.107,0,0,0-.09-.08l-2.753.006a.571.571,0,0,0-.432.17l-4,4.006a.236.236,0,0,0-.064.16.254.254,0,0,0,.089.184l6.685,6.7.009.009a.622.622,0,0,0,.438.234h2.8a.1.1,0,0,0,.1-.1.113.113,0,0,0-.036-.079Z" transform="translate(0 0.001)" fill="#fff"/>
  </g>
</svg>
