<svg xmlns="http://www.w3.org/2000/svg" xmlns:xlink="http://www.w3.org/1999/xlink" width="220" height="50" viewBox="0 0 220 50">
  <defs>
    <clipPath id="clip-path">
      <rect id="Rectangle_2068" data-name="Rectangle 2068" width="220" height="50" transform="translate(0 -0.422)" fill="none"/>
    </clipPath>
  </defs>
  <g id="Group_137" data-name="Group 137" transform="translate(0 -0.021)">
    <g id="Group_136" data-name="Group 136" transform="translate(0 0.445)" clip-path="url(#clip-path)">
      <path id="Path_30" data-name="Path 30" d="M138.518,36.42h15.069v3.942H142.871v4.2h9.443V48.5h-9.443v7.63h-4.353Zm22.718-.141h4.014l8.482,19.85h-4.552l-1.81-4.421H159l-1.809,4.421h-4.439Zm4.58,11.6-2.63-6.391-2.629,6.391Zm9.905-11.459h4.015l9.274,12.135V36.42h4.3V56.129h-3.7L180.019,43.6v12.53h-4.3Zm20.654,16.837,2.573-3.069a9.1,9.1,0,0,0,5.908,2.393c1.782,0,2.856-.7,2.856-1.858v-.056c0-1.1-.679-1.661-3.987-2.506-3.987-1.014-6.56-2.112-6.56-6.025v-.056c0-3.576,2.884-5.941,6.927-5.941a11.488,11.488,0,0,1,7.352,2.506l-2.263,3.266a9.307,9.307,0,0,0-5.146-1.943c-1.668,0-2.545.761-2.545,1.718v.056c0,1.3.849,1.718,4.27,2.59,4.015,1.041,6.277,2.477,6.277,5.912V50.3c0,3.914-3,6.11-7.266,6.11a12.626,12.626,0,0,1-8.4-3.153M215.5,36.42h4.353v7.8h8.03v-7.8h4.355V56.129h-4.355V48.217h-8.03v7.912H215.5Zm27.565-.141h4.014l8.482,19.85h-4.552l-1.81-4.421h-8.369l-1.81,4.421h-4.439Zm4.58,11.6-2.63-6.391-2.629,6.391ZM253.57,36.42h4.665l4.1,13.346,4.439-13.4H270.5l4.439,13.4,4.1-13.346H283.6l-6.758,19.85H273.05l-4.467-12.9-4.467,12.9h-3.789Zm32.542,0H301.04v3.857h-10.6v4h9.33v3.857h-9.33v4.139h10.744v3.857H286.112Z" transform="translate(-81.181 -21.703)" fill="#636569"/>
      <path id="Path_31" data-name="Path 31" d="M21.383,13.225,15.592,7.457l0,0a1.25,1.25,0,0,1-.408-.922c0-.012,0-6.308,0-6.308A.243.243,0,0,1,15.364.01.241.241,0,0,1,15.6.079l9.479,9.466Zm3.694,3.719-3.693-3.718-2.713,2.7V23.1a.587.587,0,0,0,.421-.2ZM34.978.235A.234.234,0,0,0,34.739,0a.26.26,0,0,0-.182.082l-9.48,9.464v7.4l9.347-9.3.019-.019a1.421,1.421,0,0,0,.536-1ZM9.586,25.083.08,34.523a.238.238,0,0,0-.07.234.245.245,0,0,0,.217.181l6.334,0a1.26,1.26,0,0,0,.925-.406l0,0,5.792-5.767Zm7.429,0-3.733,3.677,2.71,2.7H23.2a.578.578,0,0,0-.2-.42ZM.237,15.223A.235.235,0,0,0,0,15.462a.26.26,0,0,0,.082.181l9.5,9.44h7.429l-9.34-9.308-.02-.019a1.428,1.428,0,0,0-1-.533ZM25.154,40.586l9.479,9.466a.239.239,0,0,0,.235.069.244.244,0,0,0,.182-.216s0-6.3,0-6.307a1.251,1.251,0,0,0-.409-.922l0,0L28.85,36.907Zm0-7.4,3.692,3.718,2.714-2.7,0-7.178a.583.583,0,0,0-.421.2ZM15.254,49.9a.235.235,0,0,0,.239.236.257.257,0,0,0,.181-.082l9.48-9.464v-7.4l-9.347,9.3-.02.02a1.419,1.419,0,0,0-.535,1ZM40.768,25.046l9.506-9.44a.238.238,0,0,0,.07-.234.243.243,0,0,0-.217-.181l-6.334,0a1.259,1.259,0,0,0-.926.407l0,0-5.792,5.767Zm-7.429,0,3.733-3.677-2.71-2.7H27.153a.579.579,0,0,0,.2.42ZM50.117,34.9a.234.234,0,0,0,.236-.238.257.257,0,0,0-.082-.181l-9.5-9.441H33.339l9.34,9.308.019.019a1.428,1.428,0,0,0,1,.533Z" transform="translate(0 -0.462)" fill="#e02726"/>
      <path id="Path_32" data-name="Path 32" d="M27.715,25v7.178a.539.539,0,0,1-.366-.146l-9.167-9.119a1.3,1.3,0,0,1-.389-.985l-.013-6.283a.243.243,0,0,1,.184-.2.237.237,0,0,1,.225.069Zm6.406-6.38-3.695,3.679,3.694,3.719Zm-18.615,31.4a.237.237,0,0,0-.07.224.246.246,0,0,0,.206.184l6.309-.014a1.308,1.308,0,0,0,.989-.387L32.1,40.9a.536.536,0,0,0,.147-.365H25.037ZM18.63,34.153l3.7,3.68,3.735-3.679Zm31.5,18.613a.234.234,0,0,0,.225.069.243.243,0,0,0,.184-.2l-.014-6.283a1.3,1.3,0,0,0-.388-.984l-9.167-9.119A.541.541,0,0,0,40.6,36.1l0,7.178ZM34.2,49.656l3.7-3.679L34.2,42.258ZM52.935,18.25a.236.236,0,0,0,.07-.224.244.244,0,0,0-.206-.183l-6.309.013a1.311,1.311,0,0,0-.989.387l-9.156,9.128a.534.534,0,0,0-.147.365h7.208ZM49.813,34.116l-3.695-3.68-3.735,3.679Z" transform="translate(-9.045 -9.532)" fill="#b2282d"/>
    </g>
  </g>
</svg>
